<svg viewBox="0 0 96 96" xmlns="http://www.w3.org/2000/svg" xmlns:xlink="http://www.w3.org/1999/xlink" id="Icons_Freight_M" overflow="hidden"><style>
.MsftOfcThm_Text1_lumMod_65_lumOff_35_Fill_v2 {
 fill:#595959; 
}
</style>
<g id="Icons"><path d="M92.248 49 81.728 49C81.4782 49.0016 81.2316 49.0568 81.005 49.162L81.005 39 67.005 39 67.005 31 52 31 52 39 38 39 38 47 24 47 24 55 19 55 19 36 19.985 36C20.5985 36.0001 21.1502 35.6266 21.378 35.057L24.178 28.057C24.4856 27.2878 24.1114 26.4149 23.3423 26.1072 23.166 26.0367 22.9779 26.0003 22.788 26L11 26 11 19C11 18.4477 10.5523 18 10 18 9.44771 18 9 18.4477 9 19L9 26 6.5 26C5.67157 26 5 26.6716 5 27.5L5 34.5C5 35.3284 5.67157 36 6.5 36L8 36 8 55 3.756 55C2.79005 54.9996 2.0067 55.7824 2.00633 56.7483 2.00624 56.9716 2.0489 57.1928 2.132 57.4L8.732 73.9C8.99744 74.5643 9.64065 74.9999 10.356 75L69.747 75C70.2111 75.0002 70.6562 74.8156 70.984 74.487L93.484 51.987C94.1672 51.3033 94.1668 50.1953 93.4831 49.5121 93.1554 49.1847 92.7113 49.0005 92.248 49ZM79.005 51 75.516 54.488C75.1878 54.8165 74.7423 55.0007 74.278 55L67.006 55 67.006 49 79.006 49ZM65.005 41 65.005 47 54.005 47 54.005 41ZM65.005 49 65.005 55 54.005 55 54.005 49ZM52.005 55 40.005 55 40.005 49 52.005 49ZM79.005 47 67.005 47 67.005 41 79.005 41ZM54 33 65 33 65 39 54 39ZM52 47 40 47 40 41 52 41ZM26 49 38 49 38 55 26 55ZM7 34 7 28 22.035 28C22.0405 28.0001 22.0449 28.0046 22.0448 28.0102 22.0448 28.0115 22.0445 28.0128 22.044 28.014L19.649 34 7 34ZM10 36 17 36 17 55 10 55ZM69.64 73 10.526 73 4.131 57.014C4.12879 57.0089 4.1311 57.003 4.13616 57.0008 4.13737 57.0003 4.13868 57 4.14 57L74.278 57C75.2729 56.9997 76.2269 56.604 76.93 55.9L81.83 51 91.62 51C91.6255 51.0001 91.6299 51.0046 91.6299 51.0101 91.6298 51.0127 91.6288 51.0152 91.627 51.017Z" class="MsftOfcThm_Text1_lumMod_65_lumOff_35_Fill_v2" fill="#595959"/></g></svg>